<svg xmlns="http://www.w3.org/2000/svg" viewBox="0 0 1200 760"><defs><linearGradient id="sky" x1="0" y1="0" x2="0" y2="1"><stop offset="0" stop-color="#eaf5ff"/><stop offset="1" stop-color="#ffffff"/></linearGradient><linearGradient id="wood" x1="0" y1="0" x2="1" y2="0"><stop offset="0" stop-color="#6f4a31"/><stop offset="1" stop-color="#b78962"/></linearGradient><linearGradient id="desk" x1="0" y1="0" x2="1" y2="1"><stop offset="0" stop-color="#5b4031"/><stop offset="1" stop-color="#2d211b"/></linearGradient><filter id="shadow" x="-20%" y="-20%" width="140%" height="140%"><feDropShadow dx="0" dy="14" stdDeviation="16" flood-opacity=".18"/></filter></defs><rect width="1200" height="760" fill="url(#sky)"/><rect x="0" y="0" width="720" height="760" fill="#f8fbff"/><g opacity=".9"><rect x="40" y="70" width="620" height="430" rx="8" fill="#dfeefa" stroke="#a9bdd0" stroke-width="4"/><g stroke="#7d95aa" stroke-width="5"><line x1="180" y1="70" x2="180" y2="500"/><line x1="330" y1="70" x2="330" y2="500"/><line x1="480" y1="70" x2="480" y2="500"/><line x1="40" y1="280" x2="660" y2="280"/></g><g fill="#bdd4e8" opacity=".85"><rect x="75" y="350" width="38" height="150"/><rect x="125" y="320" width="55" height="180"/><rect x="220" y="380" width="42" height="120"/><rect x="270" y="335" width="62" height="165"/><rect x="370" y="365" width="54" height="135"/><rect x="445" y="310" width="70" height="190"/><rect x="545" y="355" width="45" height="145"/></g></g><rect x="720" y="0" width="320" height="760" fill="#f6f3ee"/><rect x="760" y="55" width="250" height="420" rx="6" fill="#f4f2ed" stroke="#e3dfd7" stroke-width="3"/><g stroke="#d7d1c8" stroke-width="2" opacity=".7"><path d="M790 90c55 45 45 110 95 160s20 120 85 175" fill="none"/><path d="M805 390c70-55 45-120 120-175" fill="none"/><path d="M825 130c35 20 30 55 50 90" fill="none"/></g><rect x="1040" y="0" width="160" height="760" fill="url(#wood)"/><g stroke="#3f2a1c" stroke-width="5" opacity=".55"><line x1="1060" y1="0" x2="1060" y2="760"/><line x1="1085" y1="0" x2="1085" y2="760"/><line x1="1110" y1="0" x2="1110" y2="760"/><line x1="1135" y1="0" x2="1135" y2="760"/><line x1="1160" y1="0" x2="1160" y2="760"/></g><g filter="url(#shadow)"><path d="M815 195h92c35 0 62 27 62 62v18c0 43-34 77-77 77h-47v-52h46c15 0 27-12 27-27v-13c0-12-10-22-22-22h-61z" fill="#1677ff"/><path d="M814 244l-71 72 37 38 53-53v79h55V244z" fill="#2aa5ff"/><text x="776" y="430" font-family="Inter,Arial" font-size="42" font-weight="800" fill="#10243d">PRACTICE</text><text x="776" y="478" font-family="Inter,Arial" font-size="42" font-weight="800" fill="#1677ff">PERFECT</text></g><g filter="url(#shadow)"><path d="M520 565h450l90 88H420z" fill="url(#desk)"/><rect x="595" y="475" width="230" height="90" rx="12" fill="#2b3440"/><rect x="625" y="495" width="170" height="55" rx="8" fill="#101820"/><rect x="755" y="545" width="18" height="58" fill="#1a1f25"/><rect x="885" y="505" width="115" height="40" rx="4" fill="#dce3ea"/></g><g fill="#31404f"><rect x="475" y="585" width="100" height="130" rx="24"/><rect x="850" y="590" width="108" height="135" rx="24"/></g><g><rect x="690" y="535" width="52" height="45" rx="5" fill="#243447"/><path d="M708 535c-6-58 16-98 42-118-3 38-13 75-30 118" fill="#3f8f5a"/><path d="M717 535c20-48 48-68 73-76-17 31-39 55-61 76" fill="#57a56f"/><path d="M710 535c-30-45-35-79-29-104 19 24 31 57 36 104" fill="#2f7c4a"/></g><g fill="#10243d" font-family="Inter,Arial" font-size="22" font-weight="700" letter-spacing="5"><text x="1070" y="225" transform="rotate(90 1070 225)">STRATEGY</text><text x="1105" y="225" transform="rotate(90 1105 225)">SYSTEMS</text><text x="1140" y="225" transform="rotate(90 1140 225)">MARKETING</text></g></svg>