<svg xmlns="http://www.w3.org/2000/svg" viewBox="0 0 900 450" role="img" aria-labelledby="t d"><title id="t">Practice Perfect</title><desc id="d">Practice Perfect blue ribbon PP growth mark with stacked wordmark</desc><defs><linearGradient id="g1" x1="0" y1="0" x2="1" y2="1"><stop offset="0" stop-color="#13d6ff"/><stop offset=".42" stop-color="#1685ff"/><stop offset="1" stop-color="#0649e8"/></linearGradient><linearGradient id="g2" x1="0" y1="1" x2="1" y2="0"><stop offset="0" stop-color="#0b65ff"/><stop offset=".55" stop-color="#063fcb"/><stop offset="1" stop-color="#08d7ff"/></linearGradient><linearGradient id="g3" x1="0" y1="0" x2="0" y2="1"><stop offset="0" stop-color="#0a2b69"/><stop offset="1" stop-color="#021d55"/></linearGradient></defs><g transform="translate(262 18)"><path d="M0 0h252c55 0 100 45 100 100v67c0 53-43 96-96 96h-188v-62h183c20 0 36-16 36-36v-64c0-21-17-38-38-38H45Z" fill="url(#g1)"/><path d="M0 0 45 63h205c21 0 38 17 38 38v64c0 9-3 18-9 24l73 0V101C352 45 307 0 251 0Z" fill="#0b43c7" opacity=".85"/><path d="M64 132h160l-76 68h120l-64 63H89l-48 47V191Z" fill="url(#g2)"/><path d="M41 191 89 144h106l-54 49v117L41 374Z" fill="url(#g1)"/></g><g font-family="Inter,Arial,sans-serif" font-weight="800" text-anchor="middle"><text x="450" y="370" font-size="78" letter-spacing="2" fill="url(#g3)">PRACTICE</text><text x="450" y="442" font-size="78" letter-spacing="2" fill="url(#g1)">PERFECT</text></g></svg>